<svg xmlns="http://www.w3.org/2000/svg" viewBox="0 0 88.27 88.27"><defs><style>.cls-1{fill:#fff;}.cls-2{fill:#ff0004;}</style></defs><g id="Layer_2" data-name="Layer 2"><g id="Layer_1-2" data-name="Layer 1"><rect class="cls-1" width="88.27" height="88.27"/><path class="cls-2" d="M10.5,59.77a13.2,13.2,0,0,1-4.08-.62,10.14,10.14,0,0,1-3.33-1.82A8.34,8.34,0,0,1,0,50.65H1.75A6.74,6.74,0,0,0,3,54.78a7.2,7.2,0,0,0,3.21,2.44,11.46,11.46,0,0,0,4.33.8,10.55,10.55,0,0,0,4.73-1,7.31,7.31,0,0,0,2.93-2.49,5.67,5.67,0,0,0,1-3.2,5.36,5.36,0,0,0-1.46-3.85A9.18,9.18,0,0,0,13.6,45.2l-2.83-.83V42.5l3.36,1a12.72,12.72,0,0,1,5.11,2.81,6.68,6.68,0,0,1,2,5.16,7.19,7.19,0,0,1-1.22,4,9.21,9.21,0,0,1-3.61,3.16A12.87,12.87,0,0,1,10.5,59.77Zm-.08-15.5L9,43.82a17.8,17.8,0,0,1-6-3,5.83,5.83,0,0,1-2-4.72,6.93,6.93,0,0,1,2.49-5.5c1.66-1.44,4.07-2.15,7.24-2.15a10.39,10.39,0,0,1,6.53,1.88,7.35,7.35,0,0,1,2.87,4.79h-1.9a5.12,5.12,0,0,0-2.3-3.7,9.5,9.5,0,0,0-5.2-1.25,8.7,8.7,0,0,0-5.78,1.7,5.43,5.43,0,0,0-2,4.3,4.59,4.59,0,0,0,1.24,3.4,9.42,9.42,0,0,0,4,2.08l2.25.7Zm-.74,19V25h1.87V63.32Z"/><path class="cls-2" d="M40.31,59.77A9.91,9.91,0,0,1,34.45,58a11.25,11.25,0,0,1-3.85-5.25,24,24,0,0,1-1.37-8.69,23.71,23.71,0,0,1,1.37-8.64,11.1,11.1,0,0,1,3.85-5.2,10,10,0,0,1,5.86-1.73,10.08,10.08,0,0,1,5.89,1.73,11.18,11.18,0,0,1,3.86,5.2,23.49,23.49,0,0,1,1.38,8.64,23.77,23.77,0,0,1-1.38,8.69A11.34,11.34,0,0,1,46.2,58,10,10,0,0,1,40.31,59.77Zm0-1.75a7.57,7.57,0,0,0,6.9-3.69q2.28-3.67,2.28-10.26T47.21,33.85a7.58,7.58,0,0,0-6.9-3.65,7.55,7.55,0,0,0-6.83,3.65q-2.29,3.65-2.3,10.22t2.3,10.26A7.54,7.54,0,0,0,40.31,58Z"/></g></g></svg>