<svg xmlns="http://www.w3.org/2000/svg" viewBox="0 0 88.27 88.27"><defs><style>.cls-1{fill:#fff;}.cls-2{fill:#ff0004;}</style></defs><g id="Layer_2" data-name="Layer 2"><g id="Layer_1-2" data-name="Layer 1"><rect class="cls-1" width="88.27" height="88.27"/><path class="cls-2" d="M10.84,53.31a9.21,9.21,0,0,0,1.9-.19,9.11,9.11,0,0,0,1.81-.59,14.11,14.11,0,0,0,1.56-.92,7,7,0,0,0,1.37-1.23l1.17,1.18A8.8,8.8,0,0,1,17.09,53a11.57,11.57,0,0,1-1.95,1.13,13.56,13.56,0,0,1-2.05.63,10.34,10.34,0,0,1-2.25.24,10.19,10.19,0,0,1-4.2-.87,11.51,11.51,0,0,1-3.42-2.35A11.23,11.23,0,0,1,.88,48.33a10.44,10.44,0,0,1,0-8.39,11.23,11.23,0,0,1,2.34-3.42,11.51,11.51,0,0,1,3.42-2.35,10.19,10.19,0,0,1,4.2-.87,9.84,9.84,0,0,1,2.15.24,13.56,13.56,0,0,1,2,.63,15.78,15.78,0,0,1,1.76.93,7,7,0,0,1,1.56,1.32h.1l3.22,3.22v-3h1.66v5.85H17.48V40.81h3l-3.32-3.22v-.1a12.13,12.13,0,0,0-1.37-1,12.56,12.56,0,0,0-1.56-.83,11.88,11.88,0,0,0-1.66-.49A8.11,8.11,0,0,0,10.84,35a8.86,8.86,0,0,0-3.56.73,8.4,8.4,0,0,0-2.89,2,8.4,8.4,0,0,0-2,2.88,9.07,9.07,0,0,0,0,7.13,8.4,8.4,0,0,0,2,2.88,8.4,8.4,0,0,0,2.89,2A8.86,8.86,0,0,0,10.84,53.31ZM33.11,37.2,18.65,51.56l-1.17-1.18L31.93,36Zm6-3.9a10.19,10.19,0,0,1,4.2.87,11.51,11.51,0,0,1,3.42,2.35,11.23,11.23,0,0,1,2.34,3.42,10.44,10.44,0,0,1,0,8.39,11.23,11.23,0,0,1-2.34,3.42,11.51,11.51,0,0,1-3.42,2.35,10.19,10.19,0,0,1-4.2.87,11.16,11.16,0,0,1-2.1-.19,10.91,10.91,0,0,1-2-.59,8.72,8.72,0,0,1-1.81-1A11.78,11.78,0,0,1,31.74,52h-.1l-5.47-5.47,1.17-1.17,5.57,5.47a8.8,8.8,0,0,0,1.32,1.07,7,7,0,0,0,1.51.78,11.88,11.88,0,0,0,1.66.49,8.11,8.11,0,0,0,1.76.19,8.86,8.86,0,0,0,3.56-.73,9.85,9.85,0,0,0,4.89-4.88,9.07,9.07,0,0,0,0-7.13,9.85,9.85,0,0,0-4.89-4.88A8.86,8.86,0,0,0,39.16,35a9.55,9.55,0,0,0-1.71.14,7.22,7.22,0,0,0-1.51.44,8.39,8.39,0,0,0-1.47.73c-.45.3-.88.61-1.27.93L31.93,36c.52-.39,1.06-.77,1.61-1.12a7.48,7.48,0,0,1,1.71-.83,9,9,0,0,1,1.86-.59A10.42,10.42,0,0,1,39.16,33.3Z"/></g></g></svg>